<!DOCTYPE svg PUBLIC "-//W3C//DTD SVG 20010904//EN" "http://www.w3.org/TR/2001/REC-SVG-20010904/DTD/svg10.dtd">
<svg version="1.0" xmlns="http://www.w3.org/2000/svg" width="500px" height="500px" viewBox="0 0 5000 5000" preserveAspectRatio="xMidYMid meet">
<g id="layer101" fill="#404040" stroke="none">
 <path d="M84 4837 c-4 -11 1178 -2815 1217 -2889 9 -17 57 -18 1199 -18 l1189 0 15 27 c50 99 1216 2868 1212 2879 -8 20 -4824 21 -4832 1z m3889 -1019 c-129 -304 -316 -745 -415 -980 l-181 -428 -877 0 -876 0 -412 973 c-227 534 -412 975 -412 980 0 4 767 7 1704 7 l1704 0 -235 -552z"/>
 </g>

</svg>